<svg id="my-svg" width="100%" xmlns="http://www.w3.org/2000/svg" xmlns:xlink="http://www.w3.org/1999/xlink" class="flowchart" style="max-width: 884.258px; background-color: transparent;" viewBox="0 0 884.2578125 982.223876953125" role="graphics-document document" aria-roledescription="flowchart-v2"><style>#my-svg{font-family:IBM Plex Mono,ui-monospace,monospace;font-size:16px;fill:#cdd6e0;}@keyframes edge-animation-frame{from{stroke-dashoffset:0;}}@keyframes dash{to{stroke-dashoffset:0;}}#my-svg .edge-animation-slow{stroke-dasharray:9,5!important;stroke-dashoffset:900;animation:dash 50s linear infinite;stroke-linecap:round;}#my-svg .edge-animation-fast{stroke-dasharray:9,5!important;stroke-dashoffset:900;animation:dash 20s linear infinite;stroke-linecap:round;}#my-svg .error-icon{fill:hsl(220.5882352941, 100%, 98.3333333333%);}#my-svg .error-text{fill:rgb(8.5000000002, 5.7500000001, 0);stroke:rgb(8.5000000002, 5.7500000001, 0);}#my-svg .edge-thickness-normal{stroke-width:1px;}#my-svg .edge-thickness-thick{stroke-width:3.5px;}#my-svg .edge-pattern-solid{stroke-dasharray:0;}#my-svg .edge-thickness-invisible{stroke-width:0;fill:none;}#my-svg .edge-pattern-dashed{stroke-dasharray:3;}#my-svg .edge-pattern-dotted{stroke-dasharray:2;}#my-svg .marker{fill:#4f5d70;stroke:#4f5d70;}#my-svg .marker.cross{stroke:#4f5d70;}#my-svg svg{font-family:IBM Plex Mono,ui-monospace,monospace;font-size:16px;}#my-svg p{margin:0;}#my-svg .label{font-family:IBM Plex Mono,ui-monospace,monospace;color:#333;}#my-svg .cluster-label text{fill:#90a0b4;}#my-svg .cluster-label span{color:#90a0b4;}#my-svg .cluster-label span p{background-color:transparent;}#my-svg .label text,#my-svg span{fill:#333;color:#333;}#my-svg .node rect,#my-svg .node circle,#my-svg .node ellipse,#my-svg .node polygon,#my-svg .node path{fill:#131b25;stroke:#7fb0cc;stroke-width:1px;}#my-svg .rough-node .label text,#my-svg .node .label text,#my-svg .image-shape .label,#my-svg .icon-shape .label{text-anchor:middle;}#my-svg .node .katex path{fill:#000;stroke:#000;stroke-width:1px;}#my-svg .rough-node .label,#my-svg .node .label,#my-svg .image-shape .label,#my-svg .icon-shape .label{text-align:center;}#my-svg .node.clickable{cursor:pointer;}#my-svg .root .anchor path{fill:#4f5d70!important;stroke-width:0;stroke:#4f5d70;}#my-svg .arrowheadPath{fill:#0b0b0b;}#my-svg .edgePath .path{stroke:#4f5d70;stroke-width:1px;}#my-svg .flowchart-link{stroke:#4f5d70;fill:none;}#my-svg .edgeLabel{background-color:#0d1117;text-align:center;}#my-svg .edgeLabel p{background-color:#0d1117;}#my-svg .edgeLabel rect{opacity:0.5;background-color:#0d1117;fill:#0d1117;}#my-svg .labelBkg{background-color:rgba(13, 17, 23, 0.5);}#my-svg .cluster rect{fill:#0d141c;stroke:#222c38;stroke-width:1px;}#my-svg .cluster text{fill:#90a0b4;}#my-svg .cluster span{color:#90a0b4;}#my-svg div.mermaidTooltip{position:absolute;text-align:center;max-width:200px;padding:2px;font-family:IBM Plex Mono,ui-monospace,monospace;font-size:12px;background:hsl(220.5882352941, 100%, 98.3333333333%);border:1px solid hsl(220.5882352941, 60%, 88.3333333333%);border-radius:2px;pointer-events:none;z-index:100;}#my-svg .flowchartTitleText{text-anchor:middle;font-size:18px;fill:#cdd6e0;}#my-svg rect.text{fill:none;stroke-width:0;}#my-svg .icon-shape,#my-svg .image-shape{background-color:#0d1117;text-align:center;}#my-svg .icon-shape p,#my-svg .image-shape p{background-color:#0d1117;padding:2px;}#my-svg .icon-shape .label rect,#my-svg .image-shape .label rect{opacity:0.5;background-color:#0d1117;fill:#0d1117;}#my-svg .label-icon{display:inline-block;height:1em;overflow:visible;vertical-align:-0.125em;}#my-svg .node .label-icon path{fill:currentColor;stroke:revert;stroke-width:revert;}#my-svg .node .neo-node{stroke:#7fb0cc;}#my-svg [data-look="neo"].node rect,#my-svg [data-look="neo"].cluster rect,#my-svg [data-look="neo"].node polygon{stroke:url(#my-svg-gradient);filter:drop-shadow( 1px 2px 2px rgba(185,185,185,1));}#my-svg [data-look="neo"].node path{stroke:url(#my-svg-gradient);stroke-width:1px;}#my-svg [data-look="neo"].node .outer-path{filter:drop-shadow( 1px 2px 2px rgba(185,185,185,1));}#my-svg [data-look="neo"].node .neo-line path{stroke:#7fb0cc;filter:none;}#my-svg [data-look="neo"].node circle{stroke:url(#my-svg-gradient);filter:drop-shadow( 1px 2px 2px rgba(185,185,185,1));}#my-svg [data-look="neo"].node circle .state-start{fill:#000000;}#my-svg [data-look="neo"].icon-shape .icon{fill:url(#my-svg-gradient);filter:drop-shadow( 1px 2px 2px rgba(185,185,185,1));}#my-svg [data-look="neo"].icon-shape .icon-neo path{stroke:url(#my-svg-gradient);filter:drop-shadow( 1px 2px 2px rgba(185,185,185,1));}#my-svg :root{--mermaid-font-family:"trebuchet ms",verdana,arial,sans-serif;}#my-svg .ember&gt;*{fill:rgb(19, 27, 37)!important;stroke:rgb(127, 176, 204)!important;stroke-width:1.6px!important;color:rgb(219, 230, 239)!important;}#my-svg .ember span{fill:rgb(19, 27, 37)!important;stroke:rgb(127, 176, 204)!important;stroke-width:1.6px!important;color:rgb(219, 230, 239)!important;}#my-svg .ember tspan{fill:rgb(219, 230, 239)!important;}#my-svg .svc&gt;*{fill:rgb(19, 27, 37)!important;stroke:rgb(127, 176, 204)!important;stroke-width:1.6px!important;color:rgb(219, 230, 239)!important;}#my-svg .svc span{fill:rgb(19, 27, 37)!important;stroke:rgb(127, 176, 204)!important;stroke-width:1.6px!important;color:rgb(219, 230, 239)!important;}#my-svg .svc tspan{fill:rgb(219, 230, 239)!important;}#my-svg .data&gt;*{fill:rgb(17, 23, 31)!important;stroke:rgb(95, 118, 134)!important;stroke-width:1.4px!important;color:rgb(196, 206, 218)!important;}#my-svg .data span{fill:rgb(17, 23, 31)!important;stroke:rgb(95, 118, 134)!important;stroke-width:1.4px!important;color:rgb(196, 206, 218)!important;}#my-svg .data tspan{fill:rgb(196, 206, 218)!important;}#my-svg .ext&gt;*{fill:rgb(15, 20, 27)!important;stroke:rgb(76, 90, 104)!important;stroke-width:1.2px!important;color:rgb(154, 167, 180)!important;}#my-svg .ext span{fill:rgb(15, 20, 27)!important;stroke:rgb(76, 90, 104)!important;stroke-width:1.2px!important;color:rgb(154, 167, 180)!important;}#my-svg .ext tspan{fill:rgb(154, 167, 180)!important;}</style><g><marker id="my-svg_flowchart-v2-pointEnd" class="marker flowchart-v2" viewBox="0 0 10 10" refX="5" refY="5" markerUnits="userSpaceOnUse" markerWidth="8" markerHeight="8" orient="auto"><path d="M 0 0 L 10 5 L 0 10 z" class="arrowMarkerPath" style="stroke-width: 1; stroke-dasharray: 1, 0;"/></marker><marker id="my-svg_flowchart-v2-pointStart" class="marker flowchart-v2" viewBox="0 0 10 10" refX="4.5" refY="5" markerUnits="userSpaceOnUse" markerWidth="8" markerHeight="8" orient="auto"><path d="M 0 5 L 10 10 L 10 0 z" class="arrowMarkerPath" style="stroke-width: 1; stroke-dasharray: 1, 0;"/></marker><marker id="my-svg_flowchart-v2-pointEnd-margin" class="marker flowchart-v2" viewBox="0 0 11.5 14" refX="11.5" refY="7" markerUnits="userSpaceOnUse" markerWidth="10.5" markerHeight="14" orient="auto"><path d="M 0 0 L 11.5 7 L 0 14 z" class="arrowMarkerPath" style="stroke-width: 0; stroke-dasharray: 1, 0;"/></marker><marker id="my-svg_flowchart-v2-pointStart-margin" class="marker flowchart-v2" viewBox="0 0 11.5 14" refX="1" refY="7" markerUnits="userSpaceOnUse" markerWidth="11.5" markerHeight="14" orient="auto"><polygon points="0,7 11.5,14 11.5,0" class="arrowMarkerPath" style="stroke-width: 0; stroke-dasharray: 1, 0;"/></marker><marker id="my-svg_flowchart-v2-circleEnd" class="marker flowchart-v2" viewBox="0 0 10 10" refX="11" refY="5" markerUnits="userSpaceOnUse" markerWidth="11" markerHeight="11" orient="auto"><circle cx="5" cy="5" r="5" class="arrowMarkerPath" style="stroke-width: 1; stroke-dasharray: 1, 0;"/></marker><marker id="my-svg_flowchart-v2-circleStart" class="marker flowchart-v2" viewBox="0 0 10 10" refX="-1" refY="5" markerUnits="userSpaceOnUse" markerWidth="11" markerHeight="11" orient="auto"><circle cx="5" cy="5" r="5" class="arrowMarkerPath" style="stroke-width: 1; stroke-dasharray: 1, 0;"/></marker><marker id="my-svg_flowchart-v2-circleEnd-margin" class="marker flowchart-v2" viewBox="0 0 10 10" refY="5" refX="12.25" markerUnits="userSpaceOnUse" markerWidth="14" markerHeight="14" orient="auto"><circle cx="5" cy="5" r="5" class="arrowMarkerPath" style="stroke-width: 0; stroke-dasharray: 1, 0;"/></marker><marker id="my-svg_flowchart-v2-circleStart-margin" class="marker flowchart-v2" viewBox="0 0 10 10" refX="-2" refY="5" markerUnits="userSpaceOnUse" markerWidth="14" markerHeight="14" orient="auto"><circle cx="5" cy="5" r="5" class="arrowMarkerPath" style="stroke-width: 0; stroke-dasharray: 1, 0;"/></marker><marker id="my-svg_flowchart-v2-crossEnd" class="marker cross flowchart-v2" viewBox="0 0 11 11" refX="12" refY="5.2" markerUnits="userSpaceOnUse" markerWidth="11" markerHeight="11" orient="auto"><path d="M 1,1 l 9,9 M 10,1 l -9,9" class="arrowMarkerPath" style="stroke-width: 2; stroke-dasharray: 1, 0;"/></marker><marker id="my-svg_flowchart-v2-crossStart" class="marker cross flowchart-v2" viewBox="0 0 11 11" refX="-1" refY="5.2" markerUnits="userSpaceOnUse" markerWidth="11" markerHeight="11" orient="auto"><path d="M 1,1 l 9,9 M 10,1 l -9,9" class="arrowMarkerPath" style="stroke-width: 2; stroke-dasharray: 1, 0;"/></marker><marker id="my-svg_flowchart-v2-crossEnd-margin" class="marker cross flowchart-v2" viewBox="0 0 15 15" refX="17.7" refY="7.5" markerUnits="userSpaceOnUse" markerWidth="12" markerHeight="12" orient="auto"><path d="M 1,1 L 14,14 M 1,14 L 14,1" class="arrowMarkerPath" style="stroke-width: 2.5;"/></marker><marker id="my-svg_flowchart-v2-crossStart-margin" class="marker cross flowchart-v2" viewBox="0 0 15 15" refX="-3.5" refY="7.5" markerUnits="userSpaceOnUse" markerWidth="12" markerHeight="12" orient="auto"><path d="M 1,1 L 14,14 M 1,14 L 14,1" class="arrowMarkerPath" style="stroke-width: 2.5; stroke-dasharray: 1, 0;"/></marker><g class="root"><g class="clusters"><g class="cluster " id="my-svg-AWS" data-look="classic"><rect style="" x="8" y="108" width="868.2578125" height="866.2238998413086"/><g class="cluster-label " transform="translate(283.18359375, 108)"><foreignObject width="317.890625" height="24"><div xmlns="http://www.w3.org/1999/xhtml" style="display: table-cell; white-space: nowrap; line-height: 1.5;"><span class="nodeLabel "><p>AWS · VPC 10.0.0.0/16 · eu-west-1</p></span></div></foreignObject></g></g><g class="cluster " id="my-svg-EKS" data-look="classic"><rect style="" x="28" y="262" width="828.2578125" height="493.2085952758789"/><g class="cluster-label " transform="translate(350.61328125, 262)"><foreignObject width="183.03125" height="24"><div xmlns="http://www.w3.org/1999/xhtml" style="display: table-cell; white-space: nowrap; line-height: 1.5;"><span class="nodeLabel "><p>EKS · namespace app</p></span></div></foreignObject></g></g></g><g class="edgePaths"><path d="M486.336,48.5L486.253,53.417C486.169,58.333,486.003,68.167,485.919,78.083C485.836,88,485.836,98,485.908,107.417C485.981,116.834,486.126,125.667,486.198,130.084L486.27,134.501" id="my-svg-L_U_NLB_0" class=" edge-thickness-thick edge-pattern-solid edge-thickness-normal edge-pattern-solid flowchart-link" style=";" data-edge="true" data-et="edge" data-id="L_U_NLB_0" data-points="W3sieCI6NDg2LjMzNTkzNzUsInkiOjQ4LjV9LHsieCI6NDg1LjgzNTkzNzUsInkiOjc4fSx7IngiOjQ4NS44MzU5Mzc1LCJ5IjoxMDh9LHsieCI6NDg2LjMzNTkzNzUsInkiOjEzOC41fV0=" data-look="classic" marker-end="url(#my-svg_flowchart-v2-pointEnd)"/><path d="M524.364,178.5L537.59,185.417C550.817,192.333,577.27,206.167,590.496,220.083C603.723,234,603.723,248,612.765,259.693C621.808,271.386,639.893,280.772,648.935,285.465L657.978,290.157" id="my-svg-L_NLB_WEB_0" class=" edge-thickness-normal edge-pattern-solid edge-thickness-normal edge-pattern-solid flowchart-link" style=";" data-edge="true" data-et="edge" data-id="L_NLB_WEB_0" data-points="W3sieCI6NTI0LjM2MzkxMTI5MDMyMjYsInkiOjE3OC41fSx7IngiOjYwMy43MjI2NTYyNSwieSI6MjIwfSx7IngiOjYwMy43MjI2NTYyNSwieSI6MjYyfSx7IngiOjY2MS41Mjc5MDE3ODU3MTQzLCJ5IjoyOTJ9XQ==" data-look="classic" marker-end="url(#my-svg_flowchart-v2-pointEnd)"/><path d="M481.747,178.5L480.057,185.417C478.368,192.333,474.988,206.167,473.299,220.083C471.609,234,471.609,248,471.609,259.333C471.609,270.667,471.609,279.333,471.609,283.667L471.609,288" id="my-svg-L_NLB_GW_0" class=" edge-thickness-normal edge-pattern-solid edge-thickness-normal edge-pattern-solid flowchart-link" style=";" data-edge="true" data-et="edge" data-id="L_NLB_GW_0" data-points="W3sieCI6NDgxLjc0NjcyMzc5MDMyMjU2LCJ5IjoxNzguNX0seyJ4Ijo0NzEuNjA5Mzc1LCJ5IjoyMjB9LHsieCI6NDcxLjYwOTM3NSwieSI6MjYyfSx7IngiOjQ3MS42MDkzNzUsInkiOjI5Mn1d" data-look="classic" marker-end="url(#my-svg_flowchart-v2-pointEnd)"/><path d="M386.266,177.391L348.123,184.492C309.979,191.594,233.693,205.797,195.55,219.898C157.406,234,157.406,248,157.406,259.333C157.406,270.667,157.406,279.333,157.406,283.667L157.406,288" id="my-svg-L_NLB_RT_0" class=" edge-thickness-normal edge-pattern-solid edge-thickness-normal edge-pattern-solid flowchart-link" style=";" data-edge="true" data-et="edge" data-id="L_NLB_RT_0" data-points="W3sieCI6Mzg2LjI2NTc4ODE4ODQ4MjIsInkiOjE3Ny4zOTA5NTEzNzY5NjQzOH0seyJ4IjoxNTcuNDA2MjUsInkiOjIyMH0seyJ4IjoxNTcuNDA2MjUsInkiOjI2Mn0seyJ4IjoxNTcuNDA2MjUsInkiOjI5Mn1d" data-look="classic" marker-end="url(#my-svg_flowchart-v2-pointEnd)"/><path d="M556.594,364.049L578.669,372.374C600.745,380.7,644.896,397.35,666.971,421.442C689.047,445.535,689.047,477.07,689.047,508.604C689.047,540.139,689.047,571.674,689.047,601.108C689.047,630.542,689.047,657.875,689.047,683.209C689.047,708.542,689.047,731.875,689.047,750.542C689.047,769.209,689.047,783.209,641.478,802.535C593.909,821.861,498.772,846.514,451.203,858.841L403.634,871.167" id="my-svg-L_GW_RDS_0" class=" edge-thickness-normal edge-pattern-solid edge-thickness-normal edge-pattern-solid flowchart-link" style=";" data-edge="true" data-et="edge" data-id="L_GW_RDS_0" data-points="W3sieCI6NTU2LjU5Mzc1LCJ5IjozNjQuMDQ5Mjk1Nzc0NjQ3OX0seyJ4Ijo2ODkuMDQ2ODc1LCJ5Ijo0MTR9LHsieCI6Njg5LjA0Njg3NSwieSI6NTA4LjYwNDI5NzYzNzkzOTQ1fSx7IngiOjY4OS4wNDY4NzUsInkiOjYwMy4yMDg1OTUyNzU4Nzg5fSx7IngiOjY4OS4wNDY4NzUsInkiOjY4NS4yMDg1OTUyNzU4Nzg5fSx7IngiOjY4OS4wNDY4NzUsInkiOjc1NS4yMDg1OTUyNzU4Nzg5fSx7IngiOjY4OS4wNDY4NzUsInkiOjc5Ny4yMDg1OTUyNzU4Nzg5fSx7IngiOjM5OS43NjE3MTg3NSwieSI6ODcyLjE3MDMzOTg0NDA5OTF9XQ==" data-look="classic" marker-end="url(#my-svg_flowchart-v2-pointEnd)"/><path d="M522.204,372L531.058,379C539.912,386,557.62,400,561.241,413.856C564.862,427.713,554.396,441.425,549.163,448.282L543.929,455.138" id="my-svg-L_GW_REDIS_0" class=" edge-thickness-normal edge-pattern-solid edge-thickness-normal edge-pattern-solid flowchart-link" style=";" data-edge="true" data-et="edge" data-id="L_GW_REDIS_0" data-points="W3sieCI6NTIyLjIwMzg4NzE5NTEyMiwieSI6MzcyfSx7IngiOjU3NS4zMjgxMjUsInkiOjQxNH0seyJ4Ijo1NDEuNTAyNjEwMjc4MTc1MywieSI6NDU4LjMxNzQ5OTg5NDI0OTI0fV0=" data-look="classic" marker-end="url(#my-svg_flowchart-v2-pointEnd)"/><path d="M421.015,372L412.161,379C403.307,386,385.599,400,371.512,413.856C357.424,427.713,346.958,441.425,341.725,448.282L336.492,455.138" id="my-svg-L_GW_MQ_0" class=" edge-thickness-normal edge-pattern-solid edge-thickness-normal edge-pattern-solid flowchart-link" style=";" data-edge="true" data-et="edge" data-id="L_GW_MQ_0" data-points="W3sieCI6NDIxLjAxNDg2MjgwNDg3OCwieSI6MzcyfSx7IngiOjM2Ny44OTA2MjUsInkiOjQxNH0seyJ4IjozMzQuMDY1MTEwMjc4MTc1NCwieSI6NDU4LjMxNzQ5OTg5NDI0OTI0fV0=" data-look="classic" marker-end="url(#my-svg_flowchart-v2-pointEnd)"/><path d="M186.782,375.31L191.155,381.759C195.529,388.207,204.276,401.103,242.999,418.909C281.722,436.716,350.421,459.431,384.771,470.789L419.12,482.147" id="my-svg-L_RT_REDIS_0" class=" edge-thickness-normal edge-pattern-solid edge-thickness-normal edge-pattern-solid flowchart-link" style=";" data-edge="true" data-et="edge" data-id="L_RT_REDIS_0" data-points="W3sieCI6MTg0LjUzNjU4NTM2NTg1MzY1LCJ5IjozNzJ9LHsieCI6MjEzLjAyMzQzNzUsInkiOjQxNH0seyJ4Ijo0MjIuOTE3OTY4NzUsInkiOjQ4My40MDIzMTcyMjI3Mzc0fV0=" data-look="classic" marker-start="url(#my-svg_flowchart-v2-pointStart)" marker-end="url(#my-svg_flowchart-v2-pointEnd)"/><path d="M134.906,372L130.969,379C127.031,386,119.156,400,115.219,422.767C111.281,445.535,111.281,477.07,111.281,508.604C111.281,540.139,111.281,571.674,111.281,601.108C111.281,630.542,111.281,657.875,111.281,683.209C111.281,708.542,111.281,731.875,111.281,750.542C111.281,769.209,111.281,783.209,133.609,800.113C155.936,817.017,200.591,836.826,222.918,846.73L245.246,856.634" id="my-svg-L_RT_RDS_0" class=" edge-thickness-normal edge-pattern-solid edge-thickness-normal edge-pattern-solid flowchart-link" style=";" data-edge="true" data-et="edge" data-id="L_RT_RDS_0" data-points="W3sieCI6MTM0LjkwNjI1LCJ5IjozNzJ9LHsieCI6MTExLjI4MTI1LCJ5Ijo0MTR9LHsieCI6MTExLjI4MTI1LCJ5Ijo1MDguNjA0Mjk3NjM3OTM5NDV9LHsieCI6MTExLjI4MTI1LCJ5Ijo2MDMuMjA4NTk1Mjc1ODc4OX0seyJ4IjoxMTEuMjgxMjUsInkiOjY4NS4yMDg1OTUyNzU4Nzg5fSx7IngiOjExMS4yODEyNSwieSI6NzU1LjIwODU5NTI3NTg3ODl9LHsieCI6MTExLjI4MTI1LCJ5Ijo3OTcuMjA4NTk1Mjc1ODc4OX0seyJ4IjoyNDguOTAyMzQzNzUsInkiOjg1OC4yNTYyMzA5NTQ5NTJ9XQ==" data-look="classic" marker-end="url(#my-svg_flowchart-v2-pointEnd)"/><path d="M291.699,561.209L291.699,568.209C291.699,575.209,291.699,589.209,291.699,602.542C291.699,615.875,291.699,628.542,291.699,634.875L291.699,641.209" id="my-svg-L_MQ_WK_0" class=" edge-thickness-normal edge-pattern-solid edge-thickness-normal edge-pattern-solid flowchart-link" style=";" data-edge="true" data-et="edge" data-id="L_MQ_WK_0" data-points="W3sieCI6MjkxLjY5OTIxODc1LCJ5Ijo1NjEuMjA4NTk1Mjc1ODc4OX0seyJ4IjoyOTEuNjk5MjE4NzUsInkiOjYwMy4yMDg1OTUyNzU4Nzg5fSx7IngiOjI5MS42OTkyMTg3NSwieSI6NjQ1LjIwODU5NTI3NTg3ODl9XQ==" data-look="classic" marker-end="url(#my-svg_flowchart-v2-pointEnd)"/><path d="M291.699,725.209L291.699,730.209C291.699,735.209,291.699,745.209,291.699,757.209C291.699,769.209,291.699,783.209,293.901,796.645C296.102,810.081,300.504,822.953,302.706,829.389L304.907,835.825" id="my-svg-L_WK_RDS_0" class=" edge-thickness-normal edge-pattern-solid edge-thickness-normal edge-pattern-solid flowchart-link" style=";" data-edge="true" data-et="edge" data-id="L_WK_RDS_0" data-points="W3sieCI6MjkxLjY5OTIxODc1LCJ5Ijo3MjUuMjA4NTk1Mjc1ODc4OX0seyJ4IjoyOTEuNjk5MjE4NzUsInkiOjc1NS4yMDg1OTUyNzU4Nzg5fSx7IngiOjI5MS42OTkyMTg3NSwieSI6Nzk3LjIwODU5NTI3NTg3ODl9LHsieCI6MzA2LjIwMTUxNjYyNjM2NjUsInkiOjgzOS42MDk0MDk3ODE4OTU4fV0=" data-look="classic" marker-end="url(#my-svg_flowchart-v2-pointEnd)"/><path d="M744.555,178L744.555,185C744.555,192,744.555,206,744.963,219.167C745.371,232.333,746.187,244.667,746.429,251.667C746.67,258.667,746.337,260.333,746.17,261.167L746.003,262" id="my-svg-L_SM_EKS_0" class=" edge-thickness-normal edge-pattern-dotted edge-thickness-normal edge-pattern-solid flowchart-link" style=";" data-edge="true" data-et="edge" data-id="L_SM_EKS_0" data-points="W3sieCI6NzQ1LjA1NDY4NzUsInkiOjE3OC41fSx7IngiOjc0NC41NTQ2ODc1LCJ5IjoyMjB9LHsieCI6NzQ0LjU1NDY4NzUsInkiOjI2Mn0seyJ4Ijo3NDIuMDAzMzQ4MjE0Mjg1NywieSI6MjkyfV0=" data-look="classic" marker-end="url(#my-svg_flowchart-v2-pointEnd)"/></g><g class="edgeLabels"><g class="edgeLabel"><g class="label" data-id="L_U_NLB_0" transform="translate(0, 0)"><foreignObject width="0" height="0"><div xmlns="http://www.w3.org/1999/xhtml" class="labelBkg" style="display: table-cell; white-space: nowrap; line-height: 1.5; max-width: 200px; text-align: center;"><span class="edgeLabel "></span></div></foreignObject></g></g><g class="edgeLabel" transform="translate(603.72265625, 220)"><g class="label" data-id="L_NLB_WEB_0" transform="translate(-4.8203125, -12)"><foreignObject width="9.640625" height="24"><div xmlns="http://www.w3.org/1999/xhtml" class="labelBkg" style="display: table-cell; white-space: nowrap; line-height: 1.5; max-width: 200px; text-align: center;"><span class="edgeLabel "><p>/</p></span></div></foreignObject></g></g><g class="edgeLabel" transform="translate(471.609375, 220)"><g class="label" data-id="L_NLB_GW_0" transform="translate(-19.265625, -12)"><foreignObject width="38.53125" height="24"><div xmlns="http://www.w3.org/1999/xhtml" class="labelBkg" style="display: table-cell; white-space: nowrap; line-height: 1.5; max-width: 200px; text-align: center;"><span class="edgeLabel "><p>/api</p></span></div></foreignObject></g></g><g class="edgeLabel" transform="translate(157.40625, 220)"><g class="label" data-id="L_NLB_RT_0" transform="translate(-14.453125, -12)"><foreignObject width="28.90625" height="24"><div xmlns="http://www.w3.org/1999/xhtml" class="labelBkg" style="display: table-cell; white-space: nowrap; line-height: 1.5; max-width: 200px; text-align: center;"><span class="edgeLabel "><p>/ws</p></span></div></foreignObject></g></g><g class="edgeLabel" transform="translate(689.046875, 603.2085952758789)"><g class="label" data-id="L_GW_RDS_0" transform="translate(-33.71875, -12)"><foreignObject width="67.4375" height="24"><div xmlns="http://www.w3.org/1999/xhtml" class="labelBkg" style="display: table-cell; white-space: nowrap; line-height: 1.5; max-width: 200px; text-align: center;"><span class="edgeLabel "><p>Drizzle</p></span></div></foreignObject></g></g><g class="edgeLabel" transform="translate(575.328125, 414)"><g class="label" data-id="L_GW_REDIS_0" transform="translate(-62.6171875, -12)"><foreignObject width="125.234375" height="24"><div xmlns="http://www.w3.org/1999/xhtml" class="labelBkg" style="display: table-cell; white-space: nowrap; line-height: 1.5; max-width: 200px; text-align: center;"><span class="edgeLabel "><p>cache · votes</p></span></div></foreignObject></g></g><g class="edgeLabel" transform="translate(367.890625, 414)"><g class="label" data-id="L_GW_MQ_0" transform="translate(-62.6171875, -12)"><foreignObject width="125.234375" height="24"><div xmlns="http://www.w3.org/1999/xhtml" class="labelBkg" style="display: table-cell; white-space: nowrap; line-height: 1.5; max-width: 200px; text-align: center;"><span class="edgeLabel "><p>publie events</p></span></div></foreignObject></g></g><g class="edgeLabel" transform="translate(293.87885, 440.73511)"><g class="label" data-id="L_RT_REDIS_0" transform="translate(-72.25, -12)"><foreignObject width="144.5" height="24"><div xmlns="http://www.w3.org/1999/xhtml" class="labelBkg" style="display: table-cell; white-space: nowrap; line-height: 1.5; max-width: 200px; text-align: center;"><span class="edgeLabel "><p>pub/sub fan-out</p></span></div></foreignObject></g></g><g class="edgeLabel" transform="translate(111.28125, 603.2085952758789)"><g class="label" data-id="L_RT_RDS_0" transform="translate(-38.53125, -12)"><foreignObject width="77.0625" height="24"><div xmlns="http://www.w3.org/1999/xhtml" class="labelBkg" style="display: table-cell; white-space: nowrap; line-height: 1.5; max-width: 200px; text-align: center;"><span class="edgeLabel "><p>messages</p></span></div></foreignObject></g></g><g class="edgeLabel" transform="translate(291.69921875, 603.2085952758789)"><g class="label" data-id="L_MQ_WK_0" transform="translate(-33.71875, -12)"><foreignObject width="67.4375" height="24"><div xmlns="http://www.w3.org/1999/xhtml" class="labelBkg" style="display: table-cell; white-space: nowrap; line-height: 1.5; max-width: 200px; text-align: center;"><span class="edgeLabel "><p>consume</p></span></div></foreignObject></g></g><g class="edgeLabel" transform="translate(291.69921875, 797.2085952758789)"><g class="label" data-id="L_WK_RDS_0" transform="translate(-62.6171875, -12)"><foreignObject width="125.234375" height="24"><div xmlns="http://www.w3.org/1999/xhtml" class="labelBkg" style="display: table-cell; white-space: nowrap; line-height: 1.5; max-width: 200px; text-align: center;"><span class="edgeLabel "><p>notifications</p></span></div></foreignObject></g></g><g class="edgeLabel" transform="translate(744.55469, 221.27567)"><g class="label" data-id="L_SM_EKS_0" transform="translate(-48.1640625, -12)"><foreignObject width="96.328125" height="24"><div xmlns="http://www.w3.org/1999/xhtml" class="labelBkg" style="display: table-cell; white-space: nowrap; line-height: 1.5; max-width: 200px; text-align: center;"><span class="edgeLabel "><p>ESO · IRSA</p></span></div></foreignObject></g></g></g><g class="nodes"><g class="node default ember " id="my-svg-flowchart-U-0" data-look="classic" transform="translate(485.8359375, 28)"><g class="basic label-container outer-path"><path d="M-41.1640625 -20 C-22.881209231763336 -20, -4.5983559635266715 -20, 41.1640625 -20 C41.1640625 -20, 41.1640625 -20, 41.1640625 -20 C41.49977909894277 -19.989234222104624, 41.83549569788553 -19.97846844420925, 42.44546689961426 -19.95890785500673 C42.774887435810584 -19.92712905206603, 43.104307972006914 -19.895350249125325, 43.72160573369012 -19.835800276464923 C44.15617025055117 -19.765543255476988, 44.59073476741222 -19.695286234489057, 44.987235074027446 -19.63118313982131 C45.28674757961507 -19.56282136492269, 45.58626008520269 -19.494459590024075, 46.237154178190146 -19.34589726078059 C46.565241634875626 -19.24852262580254, 46.89332909156111 -19.151147990824494, 47.46622686047241 -18.981114940213374 C47.83133477747108 -18.846751851737277, 48.19644269446974 -18.71238876326118, 48.66940259758748 -18.538335146920435 C48.95912131211748 -18.41008526619832, 49.24884002664748 -18.281835385476203, 49.84173728235116 -18.019377358048384 C50.07147709733711 -17.89952224372559, 50.301216912323056 -17.779667129402792, 50.97841354007875 -17.42637408246779 C51.22911538352161 -17.274397151685164, 51.47981722696447 -17.12242022090254, 52.07476052421097 -16.761762097836815 C52.379466134553866 -16.549212654554893, 52.68417174489675 -16.336663211272967, 53.12627310982432 -16.02827243735913 C53.33956824532993 -15.858175242815339, 53.55286338083554 -15.688078048271548, 54.128630406155764 -15.22891916738269 C54.37491414210413 -15.005250794704954, 54.6211978780525 -14.78158242202722, 55.07771351206973 -14.366987001954552 C55.38121139545236 -14.053600519722357, 55.68470927883499 -13.740214037490162, 55.96962244150631 -13.44601780522634 C56.15765718648528 -13.22514149429395, 56.34569193146425 -13.00426518336156, 56.8006921493606 -12.469796037174671 C57.00351143186977 -12.198036675829137, 57.20633071437893 -11.926277314483603, 57.56750759193911 -11.442333202443397 C57.82007967089278 -11.054314664070954, 58.07265174984645 -10.666296125698514, 58.26691776010692 -10.367851366210504 C58.45655698280275 -10.031127723260456, 58.646196205498576 -9.694404080310408, 58.896048627460004 -9.250765804816705 C59.08418772768785 -8.86009093766171, 59.2723268279157 -8.469416070506714, 59.452314960316244 -8.095666862447882 C59.56192130619041 -7.824937069044142, 59.67152765206459 -7.554207275640403, 59.93343094099521 -6.907301088426162 C60.09075255740789 -6.433473445586737, 60.24807417382057 -5.959645802747312, 60.33741956073321 -5.690551732620655 C60.43063041451132 -5.335098349325165, 60.523841268289424 -4.979644966029674, 60.662620743636474 -4.45041867912629 C60.74113178412592 -4.047281079527277, 60.819642824615364 -3.644143479928264, 60.907698168289 -3.191997900667592 C60.97194285704801 -2.6937287812014215, 61.03618754580703 -2.1954596617352506, 61.071644758983965 -1.920460518153639 C61.10319253628738 -1.4290784217454517, 61.1347403135908 -0.9376963253372647, 61.15378682401376 -0.6410315514331033 C61.15378682401376 -0.3216833302586451, 61.15378682401376 -0.0023351090841868816, 61.15378682401376 0.6410315514330984 C61.120942284699474 1.1526117628879686, 61.0880977453852 1.6641919743428386, 61.071644758983965 1.9204605181536252 C61.02481462281873 2.2836658065948217, 60.9779844866535 2.646871095036018, 60.907698168289 3.191997900667578 C60.824697706860874 3.6181877279472703, 60.74169724543275 4.044377555226962, 60.662620743636474 4.450418679126286 C60.535811564782534 4.933997037542111, 60.4090023859286 5.417575395957937, 60.33741956073321 5.690551732620641 C60.18628420224432 6.145747352239951, 60.03514884375543 6.600942971859262, 59.93343094099521 6.9073010884261485 C59.757714249646426 7.341324713308759, 59.581997558297644 7.775348338191368, 59.45231496031625 8.095666862447876 C59.28303813233626 8.447173817692224, 59.11376130435627 8.798680772936574, 58.896048627460004 9.250765804816702 C58.66043409512363 9.669123265538467, 58.42481956278725 10.087480726260232, 58.26691776010692 10.367851366210498 C57.98722935164036 10.797527868468766, 57.7075409431738 11.227204370727033, 57.56750759193912 11.442333202443386 C57.28069693693147 11.826633351165441, 56.99388628192383 12.210933499887494, 56.8006921493606 12.469796037174667 C56.49510746226022 12.828753198904055, 56.189522775159844 13.187710360633444, 55.96962244150632 13.44601780522633 C55.757146363506784 13.665416800371275, 55.54467028550726 13.88481579551622, 55.077713512069735 14.366987001954548 C54.874591923827545 14.551456654093386, 54.67147033558535 14.735926306232223, 54.12863040615578 15.228919167382678 C53.77300494041095 15.512521012723095, 53.41737947466611 15.796122858063512, 53.126273109824325 16.02827243735913 C52.73672130451259 16.300006913318736, 52.34716949920085 16.571741389278344, 52.07476052421099 16.761762097836808 C51.8079563253946 16.92350037107481, 51.54115212657821 17.08523864431281, 50.978413540078755 17.426374082467788 C50.654111319877 17.595562343021555, 50.32980909967526 17.76475060357532, 49.84173728235116 18.01937735804838 C49.59475993902616 18.12870690161577, 49.34778259570117 18.238036445183166, 48.66940259758749 18.53833514692043 C48.31032608063273 18.67047862442672, 47.95124956367796 18.80262210193301, 47.466226860472425 18.981114940213367 C46.98192976508496 19.124851775997037, 46.49763266969751 19.268588611780707, 46.23715417819017 19.345897260780585 C45.94110760713279 19.41346795874001, 45.64506103607542 19.481038656699436, 44.98723507402745 19.631183139821307 C44.674127438945035 19.681803954075455, 44.36101980386262 19.732424768329608, 43.72160573369013 19.835800276464923 C43.27911061588872 19.878487248300985, 42.836615498087305 19.92117422013705, 42.44546689961426 19.95890785500673 C42.10434943609518 19.96984682811692, 41.763231972576094 19.980785801227114, 41.16406250000001 20 C41.16406250000001 20, 41.1640625 20, 41.1640625 20 C10.963535969957931 20, -19.236990560084138 20, -41.16406249999999 20 C-41.62792600767807 19.98512480016431, -42.09178951535614 19.970249600328618, -42.44546689961425 19.95890785500673 C-42.906557342389114 19.914427014534628, -43.36764778516398 19.869946174062527, -43.721605733690126 19.835800276464923 C-44.15097140375391 19.766383764709513, -44.580337073817695 19.6969672529541, -44.987235074027446 19.631183139821307 C-45.43299264199029 19.529441883773764, -45.878750209953125 19.42770062772622, -46.23715417819014 19.34589726078059 C-46.63335174648272 19.228307902194828, -47.0295493147753 19.110718543609064, -47.4662268604724 18.981114940213377 C-47.92716986426636 18.811483653906784, -48.38811286806031 18.64185236760019, -48.669402597587485 18.538335146920435 C-49.039454134346194 18.374524308786174, -49.4095056711049 18.21071347065191, -49.84173728235116 18.019377358048384 C-50.249395582413726 17.806702284023345, -50.6570538824763 17.594027209998305, -50.97841354007875 17.42637408246779 C-51.4118101755828 17.1636464951039, -51.84520681108686 16.900918907740007, -52.07476052421096 16.761762097836822 C-52.39649882370302 16.53733138793767, -52.71823712319508 16.312900678038513, -53.12627310982432 16.028272437359135 C-53.42955081537289 15.786416537742832, -53.732828520921466 15.544560638126532, -54.128630406155764 15.228919167382692 C-54.47472743611433 14.914603001999936, -54.8208244660729 14.60028683661718, -55.07771351206972 14.366987001954561 C-55.40386786944508 14.030205850193765, -55.73002222682044 13.693424698432969, -55.96962244150631 13.446017805226337 C-56.14977508858462 13.23440025499214, -56.32992773566293 13.022782704757944, -56.80069214936059 12.469796037174675 C-56.978364437993605 12.231731356684916, -57.15603672662662 11.993666676195156, -57.56750759193911 11.4423332024434 C-57.82462536081029 11.047331263669006, -58.08174312968147 10.65232932489461, -58.266917760106914 10.367851366210513 C-58.403694141122166 10.1249910516075, -58.54047052213742 9.882130737004488, -58.896048627460004 9.250765804816707 C-59.10198124484558 8.8231423185634, -59.30791386223117 8.395518832310094, -59.452314960316244 8.095666862447883 C-59.64334164744019 7.623827252002007, -59.834368334564125 7.15198764155613, -59.93343094099521 6.9073010884261645 C-60.07928205230863 6.468020779368915, -60.22513316362205 6.028740470311667, -60.33741956073321 5.690551732620649 C-60.41497362645407 5.394804467882312, -60.492527692174924 5.099057203143975, -60.66262074363647 4.450418679126293 C-60.75507340092152 3.9756938238436055, -60.84752605820657 3.500968968560918, -60.907698168289 3.191997900667594 C-60.96678845886952 2.7337052756227656, -61.025878749450044 2.2754126505779366, -61.071644758983965 1.9204605181536503 C-61.08875717597375 1.6539208106433834, -61.10586959296353 1.3873811031331162, -61.15378682401376 0.6410315514331058 C-61.15378682401376 0.2669667854066496, -61.15378682401376 -0.10709798061980658, -61.15378682401376 -0.6410315514330961 C-61.12638238102244 -1.0678778714911288, -61.09897793803112 -1.4947241915491616, -61.071644758983965 -1.9204605181536227 C-61.03205537496858 -2.227507962768835, -60.99246599095319 -2.5345554073840475, -60.907698168289 -3.1919979006675847 C-60.83608307627855 -3.559726262286209, -60.764467984268094 -3.9274546239048336, -60.662620743636474 -4.450418679126283 C-60.580736724468004 -4.7626779329740465, -60.49885270529954 -5.07493718682181, -60.33741956073322 -5.690551732620639 C-60.219921294447126 -6.044437789867952, -60.10242302816103 -6.3983238471152655, -59.93343094099521 -6.907301088426139 C-59.819929268416566 -7.1876524141009455, -59.70642759583792 -7.468003739775753, -59.45231496031625 -8.095666862447873 C-59.34082626616187 -8.327175521335361, -59.22933757200748 -8.55868418022285, -58.896048627460004 -9.250765804816698 C-58.70402551758839 -9.591722280842108, -58.51200240771678 -9.932678756867515, -58.26691776010692 -10.367851366210505 C-58.02409686877071 -10.740889461842023, -57.781275977434504 -11.113927557473541, -57.56750759193912 -11.442333202443393 C-57.33600355858582 -11.7525275166855, -57.10449952523253 -12.06272183092761, -56.8006921493606 -12.469796037174667 C-56.58651993300719 -12.721374909247729, -56.37234771665378 -12.97295378132079, -55.96962244150632 -13.44601780522633 C-55.725909473544476 -13.697671453853722, -55.48219650558263 -13.949325102481113, -55.077713512069735 -14.366987001954541 C-54.729579425594046 -14.683153168168587, -54.381445339118365 -14.999319334382633, -54.128630406155786 -15.228919167382674 C-53.858754336487415 -15.444138151239372, -53.58887826681905 -15.659357135096068, -53.126273109824325 -16.028272437359128 C-52.840962345200005 -16.227292875857117, -52.55565158057568 -16.426313314355106, -52.07476052421099 -16.761762097836804 C-51.854859352266836 -16.895067480552076, -51.63495818032269 -17.028372863267347, -50.97841354007876 -17.426374082467785 C-50.65397774744938 -17.59563202767149, -50.32954195482 -17.764889972875192, -49.84173728235117 -18.01937735804838 C-49.454692921385366 -18.190710415384903, -49.06764856041957 -18.36204347272142, -48.66940259758749 -18.53833514692043 C-48.314130827859145 -18.669078442276703, -47.95885905813079 -18.799821737632975, -47.46622686047243 -18.981114940213367 C-47.093205048899414 -19.091825855856793, -46.720183237326395 -19.20253677150022, -46.23715417819017 -19.345897260780582 C-45.91187760796938 -19.420139515305486, -45.58660103774859 -19.49438176983039, -44.98723507402745 -19.631183139821303 C-44.49766304887505 -19.710333348160187, -44.008091023722635 -19.78948355649907, -43.72160573369013 -19.835800276464923 C-43.2537046242118 -19.880938133762882, -42.78580351473347 -19.92607599106084, -42.44546689961426 -19.95890785500673 C-42.08630055011339 -19.97042562076033, -41.72713420061252 -19.981943386513937, -41.16406250000001 -20 C-41.16406250000001 -20, -41.16406250000001 -20, -41.1640625 -20" stroke="none" stroke-width="0" fill="#131b25" style="fill:#131b25 !important;stroke:#7fb0cc !important;stroke-width:1.6px !important"/><path d="M-41.1640625 -20 C-8.36127222854359 -20, 24.44151804291282 -20, 41.1640625 -20 M-41.1640625 -20 C-15.708552614169701 -20, 9.746957271660598 -20, 41.1640625 -20 M41.1640625 -20 C41.1640625 -20, 41.1640625 -20, 41.1640625 -20 M41.1640625 -20 C41.1640625 -20, 41.1640625 -20, 41.1640625 -20 M41.1640625 -20 C41.556973017979615 -19.987400124442324, 41.94988353595923 -19.974800248884645, 42.44546689961426 -19.95890785500673 M41.1640625 -20 C41.67364602455314 -19.98365864821174, 42.183229549106294 -19.96731729642348, 42.44546689961426 -19.95890785500673 M42.44546689961426 -19.95890785500673 C42.88492954948902 -19.916513421704472, 43.324392199363785 -19.874118988402216, 43.72160573369012 -19.835800276464923 M42.44546689961426 -19.95890785500673 C42.9547584748856 -19.909777109253035, 43.464050050156935 -19.86064636349934, 43.72160573369012 -19.835800276464923 M43.72160573369012 -19.835800276464923 C44.175149197322995 -19.76247488654685, 44.62869266095587 -19.68914949662878, 44.987235074027446 -19.63118313982131 M43.72160573369012 -19.835800276464923 C44.08224744256384 -19.777494521792445, 44.44288915143756 -19.719188767119963, 44.987235074027446 -19.63118313982131 M44.987235074027446 -19.63118313982131 C45.33488887891479 -19.551833427508868, 45.68254268380213 -19.47248371519642, 46.237154178190146 -19.34589726078059 M44.987235074027446 -19.63118313982131 C45.38576946416356 -19.540220265952684, 45.78430385429967 -19.449257392084057, 46.237154178190146 -19.34589726078059 M46.237154178190146 -19.34589726078059 C46.484754957972065 -19.27241064902433, 46.73235573775399 -19.198924037268068, 47.46622686047241 -18.981114940213374 M46.237154178190146 -19.34589726078059 C46.699952595888725 -19.208541119686117, 47.16275101358731 -19.071184978591646, 47.46622686047241 -18.981114940213374 M47.46622686047241 -18.981114940213374 C47.89001821557675 -18.82515580405063, 48.313809570681094 -18.669196667887892, 48.66940259758748 -18.538335146920435 M47.46622686047241 -18.981114940213374 C47.76687131933225 -18.87047500022604, 48.06751577819209 -18.759835060238704, 48.66940259758748 -18.538335146920435 M48.66940259758748 -18.538335146920435 C49.126919081885816 -18.335806171065865, 49.584435566184155 -18.133277195211292, 49.84173728235116 -18.019377358048384 M48.66940259758748 -18.538335146920435 C49.064630487064825 -18.3633794842676, 49.45985837654217 -18.188423821614766, 49.84173728235116 -18.019377358048384 M49.84173728235116 -18.019377358048384 C50.158133483001755 -17.854313662830407, 50.47452968365235 -17.689249967612433, 50.97841354007875 -17.42637408246779 M49.84173728235116 -18.019377358048384 C50.11793305465947 -17.875286200546974, 50.39412882696778 -17.731195043045563, 50.97841354007875 -17.42637408246779 M50.97841354007875 -17.42637408246779 C51.350897090558504 -17.200572365210654, 51.723380641038254 -16.974770647953513, 52.07476052421097 -16.761762097836815 M50.97841354007875 -17.42637408246779 C51.24153548247195 -17.266868014712863, 51.50465742486516 -17.107361946957933, 52.07476052421097 -16.761762097836815 M52.07476052421097 -16.761762097836815 C52.48418387552917 -16.476166091608462, 52.893607226847365 -16.190570085380113, 53.12627310982432 -16.02827243735913 M52.07476052421097 -16.761762097836815 C52.40100126587144 -16.53419067918856, 52.72724200753191 -16.306619260540298, 53.12627310982432 -16.02827243735913 M53.12627310982432 -16.02827243735913 C53.365247879892216 -15.837696417615694, 53.60422264996011 -15.647120397872257, 54.128630406155764 -15.22891916738269 M53.12627310982432 -16.02827243735913 C53.375695845153224 -15.829364443352068, 53.62511858048214 -15.630456449345004, 54.128630406155764 -15.22891916738269 M54.128630406155764 -15.22891916738269 C54.403548866750455 -14.979245495414457, 54.67846732734515 -14.729571823446225, 55.07771351206973 -14.366987001954552 M54.128630406155764 -15.22891916738269 C54.4244325277591 -14.960279507037802, 54.72023464936243 -14.691639846692912, 55.07771351206973 -14.366987001954552 M55.07771351206973 -14.366987001954552 C55.37524233755985 -14.059764062065145, 55.67277116304996 -13.752541122175737, 55.96962244150631 -13.44601780522634 M55.07771351206973 -14.366987001954552 C55.340485666879104 -14.095653178118743, 55.60325782168847 -13.824319354282935, 55.96962244150631 -13.44601780522634 M55.96962244150631 -13.44601780522634 C56.204982648822934 -13.16955031333705, 56.44034285613956 -12.89308282144776, 56.8006921493606 -12.469796037174671 M55.96962244150631 -13.44601780522634 C56.29179258490836 -13.067578422785811, 56.613962728310405 -12.689139040345284, 56.8006921493606 -12.469796037174671 M56.8006921493606 -12.469796037174671 C57.04883866977095 -12.13730230643787, 57.2969851901813 -11.804808575701069, 57.56750759193911 -11.442333202443397 M56.8006921493606 -12.469796037174671 C57.04072199267881 -12.148177914296843, 57.28075183599702 -11.826559791419013, 57.56750759193911 -11.442333202443397 M57.56750759193911 -11.442333202443397 C57.83817811913275 -11.026510587460528, 58.108848646326386 -10.61068797247766, 58.26691776010692 -10.367851366210504 M57.56750759193911 -11.442333202443397 C57.83146542291837 -11.036823091457139, 58.09542325389763 -10.63131298047088, 58.26691776010692 -10.367851366210504 M58.26691776010692 -10.367851366210504 C58.516755247958834 -9.924239607740487, 58.76659273581074 -9.480627849270473, 58.896048627460004 -9.250765804816705 M58.26691776010692 -10.367851366210504 C58.41268054892167 -10.10903477458702, 58.55844333773642 -9.850218182963536, 58.896048627460004 -9.250765804816705 M58.896048627460004 -9.250765804816705 C59.02020254943712 -8.992957529362847, 59.144356471414234 -8.735149253908991, 59.452314960316244 -8.095666862447882 M58.896048627460004 -9.250765804816705 C59.10572945310197 -8.815359083920207, 59.31541027874393 -8.379952363023708, 59.452314960316244 -8.095666862447882 M59.452314960316244 -8.095666862447882 C59.568382978473856 -7.808976613576109, 59.68445099663147 -7.522286364704337, 59.93343094099521 -6.907301088426162 M59.452314960316244 -8.095666862447882 C59.619579760851096 -7.682519571281882, 59.78684456138595 -7.269372280115883, 59.93343094099521 -6.907301088426162 M59.93343094099521 -6.907301088426162 C60.046266576973565 -6.567458130776485, 60.15910221295193 -6.227615173126808, 60.33741956073321 -5.690551732620655 M59.93343094099521 -6.907301088426162 C60.045150392271 -6.570819901260737, 60.156869843546794 -6.234338714095312, 60.33741956073321 -5.690551732620655 M60.33741956073321 -5.690551732620655 C60.443378824999165 -5.286483134938953, 60.54933808926511 -4.882414537257251, 60.662620743636474 -4.45041867912629 M60.33741956073321 -5.690551732620655 C60.451454251208986 -5.25568803488903, 60.56548894168477 -4.820824337157403, 60.662620743636474 -4.45041867912629 M60.662620743636474 -4.45041867912629 C60.713664877084014 -4.188317842054599, 60.764709010531554 -3.926217004982907, 60.907698168289 -3.191997900667592 M60.662620743636474 -4.45041867912629 C60.75001010625907 -4.001692771807591, 60.837399468881664 -3.5529668644888925, 60.907698168289 -3.191997900667592 M60.907698168289 -3.191997900667592 C60.96978772446857 -2.710443563908544, 61.03187728064814 -2.228889227149496, 61.071644758983965 -1.920460518153639 M60.907698168289 -3.191997900667592 C60.970384256542154 -2.7058169789444064, 61.033070344795306 -2.219636057221221, 61.071644758983965 -1.920460518153639 M61.071644758983965 -1.920460518153639 C61.08818048280241 -1.6629032722854105, 61.10471620662084 -1.405346026417182, 61.15378682401376 -0.6410315514331033 M61.071644758983965 -1.920460518153639 C61.09524611621609 -1.5528503285906812, 61.118847473448206 -1.1852401390277232, 61.15378682401376 -0.6410315514331033 M61.15378682401376 -0.6410315514331033 C61.15378682401376 -0.18398330776559807, 61.15378682401376 0.27306493590190717, 61.15378682401376 0.6410315514330984 M61.15378682401376 -0.6410315514331033 C61.15378682401376 -0.15178687003006375, 61.15378682401376 0.3374578113729758, 61.15378682401376 0.6410315514330984 M61.15378682401376 0.6410315514330984 C61.131685292565415 0.9852807437761477, 61.109583761117065 1.329529936119197, 61.071644758983965 1.9204605181536252 M61.15378682401376 0.6410315514330984 C61.128051159574035 1.0418852985361706, 61.10231549513432 1.442739045639243, 61.071644758983965 1.9204605181536252 M61.071644758983965 1.9204605181536252 C61.01084971141022 2.391974901795499, 60.95005466383649 2.863489285437373, 60.907698168289 3.191997900667578 M61.071644758983965 1.9204605181536252 C61.02754659592862 2.2624771626436084, 60.98344843287328 2.6044938071335912, 60.907698168289 3.191997900667578 M60.907698168289 3.191997900667578 C60.81856891222857 3.6496577930629512, 60.72943965616814 4.107317685458325, 60.662620743636474 4.450418679126286 M60.907698168289 3.191997900667578 C60.834892360405334 3.5658403366372764, 60.762086552521666 3.939682772606975, 60.662620743636474 4.450418679126286 M60.662620743636474 4.450418679126286 C60.56643815221014 4.817204586033717, 60.4702555607838 5.183990492941148, 60.33741956073321 5.690551732620641 M60.662620743636474 4.450418679126286 C60.584468716417845 4.748446230213762, 60.50631668919922 5.046473781301239, 60.33741956073321 5.690551732620641 M60.33741956073321 5.690551732620641 C60.24249748503601 5.976441900841698, 60.147575409338806 6.262332069062755, 59.93343094099521 6.9073010884261485 M60.33741956073321 5.690551732620641 C60.230799802603016 6.011673456557276, 60.12418004447283 6.332795180493911, 59.93343094099521 6.9073010884261485 M59.93343094099521 6.9073010884261485 C59.743786173912355 7.375727329652936, 59.5541414068295 7.844153570879724, 59.45231496031625 8.095666862447876 M59.93343094099521 6.9073010884261485 C59.74161860866382 7.381081257723848, 59.549806276332426 7.854861427021547, 59.45231496031625 8.095666862447876 M59.45231496031625 8.095666862447876 C59.293605636412984 8.42523016936854, 59.13489631250972 8.754793476289205, 58.896048627460004 9.250765804816702 M59.45231496031625 8.095666862447876 C59.23931998643339 8.537955483078013, 59.02632501255052 8.98024410370815, 58.896048627460004 9.250765804816702 M58.896048627460004 9.250765804816702 C58.686161228124234 9.623442135741177, 58.47627382878847 9.996118466665653, 58.26691776010692 10.367851366210498 M58.896048627460004 9.250765804816702 C58.67889419780135 9.636345483946078, 58.46173976814269 10.021925163075455, 58.26691776010692 10.367851366210498 M58.26691776010692 10.367851366210498 C58.12505491208945 10.58579079627389, 57.98319206407199 10.803730226337281, 57.56750759193912 11.442333202443386 M58.26691776010692 10.367851366210498 C58.07993247218035 10.655110981045935, 57.89294718425379 10.942370595881371, 57.56750759193912 11.442333202443386 M57.56750759193912 11.442333202443386 C57.37706676225763 11.697506564700092, 57.18662593257613 11.9526799269568, 56.8006921493606 12.469796037174667 M57.56750759193912 11.442333202443386 C57.37753289725586 11.69688198626823, 57.1875582025726 11.951430770093072, 56.8006921493606 12.469796037174667 M56.8006921493606 12.469796037174667 C56.60157233337704 12.703693503267457, 56.402452517393485 12.937590969360246, 55.96962244150632 13.44601780522633 M56.8006921493606 12.469796037174667 C56.518663089943544 12.801083418274036, 56.236634030526496 13.132370799373406, 55.96962244150632 13.44601780522633 M55.96962244150632 13.44601780522633 C55.73553633899189 13.687730924898911, 55.50145023647747 13.929444044571495, 55.077713512069735 14.366987001954548 M55.96962244150632 13.44601780522633 C55.64937462458089 13.776699969036589, 55.329126807655456 14.10738213284685, 55.077713512069735 14.366987001954548 M55.077713512069735 14.366987001954548 C54.8754686651802 14.550660420794209, 54.67322381829066 14.734333839633868, 54.12863040615578 15.228919167382678 M55.077713512069735 14.366987001954548 C54.73075928762261 14.68208164869169, 54.38380506317549 14.997176295428835, 54.12863040615578 15.228919167382678 M54.12863040615578 15.228919167382678 C53.740337356356406 15.538572541685667, 53.35204430655704 15.848225915988658, 53.126273109824325 16.02827243735913 M54.12863040615578 15.228919167382678 C53.739186664542096 15.539490187786386, 53.349742922928414 15.850061208190096, 53.126273109824325 16.02827243735913 M53.126273109824325 16.02827243735913 C52.84238426110163 16.226301008877893, 52.55849541237894 16.424329580396652, 52.07476052421099 16.761762097836808 M53.126273109824325 16.02827243735913 C52.77744866263675 16.27159727135024, 52.428624215449176 16.51492210534135, 52.07476052421099 16.761762097836808 M52.07476052421099 16.761762097836808 C51.66562543421897 17.009782193734633, 51.256490344226954 17.257802289632462, 50.978413540078755 17.426374082467788 M52.07476052421099 16.761762097836808 C51.71923748019989 16.97728225640165, 51.36371443618878 17.192802414966494, 50.978413540078755 17.426374082467788 M50.978413540078755 17.426374082467788 C50.527754756810324 17.661482481038203, 50.07709597354189 17.896590879608617, 49.84173728235116 18.01937735804838 M50.978413540078755 17.426374082467788 C50.71130260771075 17.56572568479146, 50.444191675342736 17.70507728711513, 49.84173728235116 18.01937735804838 M49.84173728235116 18.01937735804838 C49.4090239999078 18.210926692202598, 48.976310717464436 18.402476026356815, 48.66940259758749 18.53833514692043 M49.84173728235116 18.01937735804838 C49.481071329344495 18.179033476669066, 49.12040537633782 18.33868959528975, 48.66940259758749 18.53833514692043 M48.66940259758749 18.53833514692043 C48.2256972153681 18.70162282914476, 47.7819918331487 18.864910511369086, 47.466226860472425 18.981114940213367 M48.66940259758749 18.53833514692043 C48.237997236054554 18.697096307832, 47.806591874521615 18.855857468743565, 47.466226860472425 18.981114940213367 M47.466226860472425 18.981114940213367 C47.0844915944059 19.094411963412615, 46.70275632833937 19.20770898661186, 46.23715417819017 19.345897260780585 M47.466226860472425 18.981114940213367 C47.08394021153837 19.094575610953427, 46.701653562604314 19.208036281693488, 46.23715417819017 19.345897260780585 M46.23715417819017 19.345897260780585 C45.87461744951643 19.42864390332712, 45.51208072084268 19.511390545873653, 44.98723507402745 19.631183139821307 M46.23715417819017 19.345897260780585 C45.77631613714661 19.45108053639952, 45.31547809610305 19.55626381201845, 44.98723507402745 19.631183139821307 M44.98723507402745 19.631183139821307 C44.73215102849361 19.6724231500969, 44.47706698295976 19.713663160372494, 43.72160573369013 19.835800276464923 M44.98723507402745 19.631183139821307 C44.69880989487335 19.677813486016273, 44.41038471571925 19.724443832211236, 43.72160573369013 19.835800276464923 M43.72160573369013 19.835800276464923 C43.35045423644415 19.87160481502926, 42.97930273919817 19.9074093535936, 42.44546689961426 19.95890785500673 M43.72160573369013 19.835800276464923 C43.305605049404505 19.875931362163936, 42.88960436511888 19.91606244786295, 42.44546689961426 19.95890785500673 M42.44546689961426 19.95890785500673 C42.139927373864985 19.968705912900898, 41.83438784811571 19.978503970795067, 41.16406250000001 20 M42.44546689961426 19.95890785500673 C41.93907055823769 19.975147000033992, 41.43267421686111 19.991386145061256, 41.16406250000001 20 M41.16406250000001 20 C41.16406250000001 20, 41.16406250000001 20, 41.1640625 20 M41.16406250000001 20 C41.16406250000001 20, 41.1640625 20, 41.1640625 20 M41.1640625 20 C20.652253316241598 20, 0.14044413248319643 20, -41.16406249999999 20 M41.1640625 20 C14.859375234752875 20, -11.44531203049425 20, -41.16406249999999 20 M-41.16406249999999 20 C-41.63385542128087 19.98493465541097, -42.10364834256175 19.96986931082194, -42.44546689961425 19.95890785500673 M-41.16406249999999 20 C-41.62314408666739 19.985278147063678, -42.08222567333478 19.970556294127356, -42.44546689961425 19.95890785500673 M-42.44546689961425 19.95890785500673 C-42.81709534463533 19.92305730586414, -43.18872378965641 19.887206756721554, -43.721605733690126 19.835800276464923 M-42.44546689961425 19.95890785500673 C-42.71299684394647 19.933099563028833, -42.98052678827868 19.907291271050934, -43.721605733690126 19.835800276464923 M-43.721605733690126 19.835800276464923 C-44.19475375309031 19.75930537400599, -44.6679017724905 19.68281047154706, -44.987235074027446 19.631183139821307 M-43.721605733690126 19.835800276464923 C-44.174104102808336 19.76264384932315, -44.62660247192655 19.68948742218138, -44.987235074027446 19.631183139821307 M-44.987235074027446 19.631183139821307 C-45.299166987873384 19.55998671603194, -45.611098901719316 19.488790292242577, -46.23715417819014 19.34589726078059 M-44.987235074027446 19.631183139821307 C-45.46459343637367 19.52222920867021, -45.941951798719884 19.41327527751912, -46.23715417819014 19.34589726078059 M-46.23715417819014 19.34589726078059 C-46.52128088133379 19.261569946699055, -46.805407584477436 19.177242632617517, -47.4662268604724 18.981114940213377 M-46.23715417819014 19.34589726078059 C-46.69048372698263 19.211351430274338, -47.143813275775116 19.07680559976809, -47.4662268604724 18.981114940213377 M-47.4662268604724 18.981114940213377 C-47.71758548565795 18.888612642611434, -47.9689441108435 18.79611034500949, -48.669402597587485 18.538335146920435 M-47.4662268604724 18.981114940213377 C-47.881219728279646 18.828393728708296, -48.29621259608688 18.675672517203214, -48.669402597587485 18.538335146920435 M-48.669402597587485 18.538335146920435 C-49.04965838770894 18.37000718852091, -49.42991417783039 18.20167923012138, -49.84173728235116 18.019377358048384 M-48.669402597587485 18.538335146920435 C-48.91211452396095 18.43089377690839, -49.15482645033441 18.323452406896344, -49.84173728235116 18.019377358048384 M-49.84173728235116 18.019377358048384 C-50.16324927498656 17.851644757428755, -50.48476126762196 17.683912156809125, -50.97841354007875 17.42637408246779 M-49.84173728235116 18.019377358048384 C-50.115653883042 17.87647524291993, -50.38957048373284 17.733573127791473, -50.97841354007875 17.42637408246779 M-50.97841354007875 17.42637408246779 C-51.22422351837562 17.277362629084458, -51.470033496672485 17.128351175701123, -52.07476052421096 16.761762097836822 M-50.97841354007875 17.42637408246779 C-51.30379286799778 17.2291272217421, -51.62917219591681 17.03188036101641, -52.07476052421096 16.761762097836822 M-52.07476052421096 16.761762097836822 C-52.37315346491014 16.553616099627288, -52.67154640560932 16.345470101417753, -53.12627310982432 16.028272437359135 M-52.07476052421096 16.761762097836822 C-52.443216470738626 16.504743179739975, -52.811672417266294 16.247724261643132, -53.12627310982432 16.028272437359135 M-53.12627310982432 16.028272437359135 C-53.33217752333547 15.864069146930554, -53.538081936846616 15.699865856501974, -54.128630406155764 15.228919167382692 M-53.12627310982432 16.028272437359135 C-53.489798420621625 15.73837067581308, -53.853323731418925 15.448468914267025, -54.128630406155764 15.228919167382692 M-54.128630406155764 15.228919167382692 C-54.37531675710115 15.004885150417266, -54.62200310804655 14.780851133451842, -55.07771351206972 14.366987001954561 M-54.128630406155764 15.228919167382692 C-54.4125832422732 14.97104071460118, -54.696536078390636 14.71316226181967, -55.07771351206972 14.366987001954561 M-55.07771351206972 14.366987001954561 C-55.341990994613894 14.094098803642865, -55.60626847715807 13.82121060533117, -55.96962244150631 13.446017805226337 M-55.07771351206972 14.366987001954561 C-55.318136950743984 14.118730062391972, -55.55856038941825 13.870473122829383, -55.96962244150631 13.446017805226337 M-55.96962244150631 13.446017805226337 C-56.26376232448781 13.100504361642793, -56.5579022074693 12.754990918059248, -56.80069214936059 12.469796037174675 M-55.96962244150631 13.446017805226337 C-56.25353414168129 13.112518967167412, -56.53744584185627 12.77902012910849, -56.80069214936059 12.469796037174675 M-56.80069214936059 12.469796037174675 C-57.038475803566385 12.15118760307545, -57.27625945777218 11.832579168976226, -57.56750759193911 11.4423332024434 M-56.80069214936059 12.469796037174675 C-57.10261748265463 12.065243596524379, -57.404542815948666 11.660691155874085, -57.56750759193911 11.4423332024434 M-57.56750759193911 11.4423332024434 C-57.7926014427418 11.096528601448275, -58.01769529354448 10.75072400045315, -58.266917760106914 10.367851366210513 M-57.56750759193911 11.4423332024434 C-57.81191363915313 11.066859881709606, -58.05631968636716 10.69138656097581, -58.266917760106914 10.367851366210513 M-58.266917760106914 10.367851366210513 C-58.50419695870439 9.946538121976428, -58.74147615730187 9.52522487774234, -58.896048627460004 9.250765804816707 M-58.266917760106914 10.367851366210513 C-58.42134469481841 10.09365070620745, -58.57577162952991 9.819450046204386, -58.896048627460004 9.250765804816707 M-58.896048627460004 9.250765804816707 C-59.040791340241825 8.950204464727324, -59.18553405302365 8.649643124637942, -59.452314960316244 8.095666862447883 M-58.896048627460004 9.250765804816707 C-59.0850616778118 8.858276161529787, -59.274074728163605 8.465786518242867, -59.452314960316244 8.095666862447883 M-59.452314960316244 8.095666862447883 C-59.57966925001428 7.781099304666056, -59.70702353971231 7.466531746884229, -59.93343094099521 6.9073010884261645 M-59.452314960316244 8.095666862447883 C-59.64306047911619 7.624521743198308, -59.83380599791613 7.1533766239487315, -59.93343094099521 6.9073010884261645 M-59.93343094099521 6.9073010884261645 C-60.02597209248384 6.628581884572546, -60.11851324397248 6.349862680718929, -60.33741956073321 5.690551732620649 M-59.93343094099521 6.9073010884261645 C-60.027043841701825 6.625353946688026, -60.12065674240845 6.343406804949888, -60.33741956073321 5.690551732620649 M-60.33741956073321 5.690551732620649 C-60.45626497584572 5.237342656867906, -60.57511039095824 4.784133581115162, -60.66262074363647 4.450418679126293 M-60.33741956073321 5.690551732620649 C-60.458325185112955 5.229486186031615, -60.57923080949269 4.76842063944258, -60.66262074363647 4.450418679126293 M-60.66262074363647 4.450418679126293 C-60.736937804306265 4.068816279503235, -60.81125486497606 3.6872138798801757, -60.907698168289 3.191997900667594 M-60.66262074363647 4.450418679126293 C-60.750402598953094 3.9996774047771018, -60.83818445426972 3.5489361304279106, -60.907698168289 3.191997900667594 M-60.907698168289 3.191997900667594 C-60.95570665837558 2.8196535319047413, -61.00371514846216 2.447309163141888, -61.071644758983965 1.9204605181536503 M-60.907698168289 3.191997900667594 C-60.96194390367638 2.7712786890351615, -61.016189639063754 2.350559477402729, -61.071644758983965 1.9204605181536503 M-61.071644758983965 1.9204605181536503 C-61.10442601919204 1.4098659298558376, -61.13720727940012 0.8992713415580251, -61.15378682401376 0.6410315514331058 M-61.071644758983965 1.9204605181536503 C-61.09608909394063 1.5397202700916055, -61.12053342889729 1.1589800220295605, -61.15378682401376 0.6410315514331058 M-61.15378682401376 0.6410315514331058 C-61.15378682401376 0.14392014972342498, -61.15378682401376 -0.3531912519862558, -61.15378682401376 -0.6410315514330961 M-61.15378682401376 0.6410315514331058 C-61.15378682401376 0.3438831796726993, -61.15378682401376 0.0467348079122929, -61.15378682401376 -0.6410315514330961 M-61.15378682401376 -0.6410315514330961 C-61.13593565810732 -0.9190778696275863, -61.118084492200886 -1.1971241878220766, -61.071644758983965 -1.9204605181536227 M-61.15378682401376 -0.6410315514330961 C-61.13294728676475 -0.9656241654581014, -61.112107749515744 -1.2902167794831065, -61.071644758983965 -1.9204605181536227 M-61.071644758983965 -1.9204605181536227 C-61.02359425224495 -2.2931307597756545, -60.97554374550593 -2.6658010013976856, -60.907698168289 -3.1919979006675847 M-61.071644758983965 -1.9204605181536227 C-61.017587180254104 -2.339720423906097, -60.96352960152424 -2.7589803296585713, -60.907698168289 -3.1919979006675847 M-60.907698168289 -3.1919979006675847 C-60.833460543040594 -3.573192416190507, -60.75922291779219 -3.9543869317134295, -60.662620743636474 -4.450418679126283 M-60.907698168289 -3.1919979006675847 C-60.82131539829766 -3.6355551675681967, -60.73493262830633 -4.079112434468809, -60.662620743636474 -4.450418679126283 M-60.662620743636474 -4.450418679126283 C-60.563920112595426 -4.8268069624098775, -60.465219481554385 -5.203195245693472, -60.33741956073322 -5.690551732620639 M-60.662620743636474 -4.450418679126283 C-60.58387780748734 -4.750699622067341, -60.50513487133821 -5.050980565008397, -60.33741956073322 -5.690551732620639 M-60.33741956073322 -5.690551732620639 C-60.21750914987489 -6.051702784996472, -60.09759873901656 -6.412853837372304, -59.93343094099521 -6.907301088426139 M-60.33741956073322 -5.690551732620639 C-60.20766688053236 -6.081346132103527, -60.07791420033149 -6.472140531586416, -59.93343094099521 -6.907301088426139 M-59.93343094099521 -6.907301088426139 C-59.758341215166446 -7.339776096352748, -59.583251489337684 -7.772251104279356, -59.45231496031625 -8.095666862447873 M-59.93343094099521 -6.907301088426139 C-59.81499212009564 -7.199847265906902, -59.69655329919607 -7.492393443387665, -59.45231496031625 -8.095666862447873 M-59.45231496031625 -8.095666862447873 C-59.267064234659124 -8.480343958005456, -59.08181350900199 -8.865021053563039, -58.896048627460004 -9.250765804816698 M-59.45231496031625 -8.095666862447873 C-59.31056828679877 -8.390006862899876, -59.16882161328129 -8.684346863351879, -58.896048627460004 -9.250765804816698 M-58.896048627460004 -9.250765804816698 C-58.650877466287 -9.68609202775151, -58.40570630511399 -10.121418250686324, -58.26691776010692 -10.367851366210505 M-58.896048627460004 -9.250765804816698 C-58.75262298958158 -9.505432548290536, -58.60919735170316 -9.760099291764375, -58.26691776010692 -10.367851366210505 M-58.26691776010692 -10.367851366210505 C-58.122420022125446 -10.589838694825646, -57.977922284143965 -10.811826023440787, -57.56750759193912 -11.442333202443393 M-58.26691776010692 -10.367851366210505 C-58.009717312991434 -10.76298032097038, -57.75251686587594 -11.158109275730254, -57.56750759193912 -11.442333202443393 M-57.56750759193912 -11.442333202443393 C-57.411852117044766 -11.650897358296342, -57.256196642150414 -11.859461514149293, -56.8006921493606 -12.469796037174667 M-57.56750759193912 -11.442333202443393 C-57.39554721061169 -11.672744447509137, -57.22358682928425 -11.90315569257488, -56.8006921493606 -12.469796037174667 M-56.8006921493606 -12.469796037174667 C-56.585075021067674 -12.723072185029702, -56.36945789277475 -12.976348332884736, -55.96962244150632 -13.44601780522633 M-56.8006921493606 -12.469796037174667 C-56.61265744943651 -12.690672295183028, -56.42462274951243 -12.911548553191388, -55.96962244150632 -13.44601780522633 M-55.96962244150632 -13.44601780522633 C-55.69731442579672 -13.727198188350359, -55.42500641008712 -14.00837857147439, -55.077713512069735 -14.366987001954541 M-55.96962244150632 -13.44601780522633 C-55.66372363976132 -13.761883432786728, -55.35782483801633 -14.077749060347127, -55.077713512069735 -14.366987001954541 M-55.077713512069735 -14.366987001954541 C-54.87753433717163 -14.54878443214627, -54.67735516227353 -14.730581862338, -54.128630406155786 -15.228919167382674 M-55.077713512069735 -14.366987001954541 C-54.871532760736045 -14.55423490507206, -54.665352009402355 -14.741482808189577, -54.128630406155786 -15.228919167382674 M-54.128630406155786 -15.228919167382674 C-53.775256546153855 -15.51072541706087, -53.421882686151925 -15.792531666739066, -53.126273109824325 -16.028272437359128 M-54.128630406155786 -15.228919167382674 C-53.80675421792672 -15.485606862010256, -53.484878029697654 -15.74229455663784, -53.126273109824325 -16.028272437359128 M-53.126273109824325 -16.028272437359128 C-52.71754437435523 -16.313383909640585, -52.308815638886124 -16.598495381922042, -52.07476052421099 -16.761762097836804 M-53.126273109824325 -16.028272437359128 C-52.789605280112276 -16.263117341250798, -52.452937450400235 -16.497962245142467, -52.07476052421099 -16.761762097836804 M-52.07476052421099 -16.761762097836804 C-51.78127554834612 -16.939674414915242, -51.487790572481266 -17.11758673199368, -50.97841354007876 -17.426374082467785 M-52.07476052421099 -16.761762097836804 C-51.80487828501277 -16.925366297242846, -51.53499604581455 -17.088970496648887, -50.97841354007876 -17.426374082467785 M-50.97841354007876 -17.426374082467785 C-50.62505953019892 -17.610718643088056, -50.271705520319074 -17.795063203708324, -49.84173728235117 -18.01937735804838 M-50.97841354007876 -17.426374082467785 C-50.72046305815457 -17.56094668366247, -50.462512576230374 -17.695519284857152, -49.84173728235117 -18.01937735804838 M-49.84173728235117 -18.01937735804838 C-49.46597537324551 -18.18571600862846, -49.09021346413985 -18.35205465920854, -48.66940259758749 -18.53833514692043 M-49.84173728235117 -18.01937735804838 C-49.47083968838284 -18.183562720611945, -49.09994209441451 -18.347748083175514, -48.66940259758749 -18.53833514692043 M-48.66940259758749 -18.53833514692043 C-48.19099452077934 -18.714393741541613, -47.7125864439712 -18.890452336162795, -47.46622686047243 -18.981114940213367 M-48.66940259758749 -18.53833514692043 C-48.22273501652592 -18.70271294570095, -47.77606743546435 -18.867090744481462, -47.46622686047243 -18.981114940213367 M-47.46622686047243 -18.981114940213367 C-47.08310731369292 -19.094822810661984, -46.69998776691342 -19.208530681110606, -46.23715417819017 -19.345897260780582 M-47.46622686047243 -18.981114940213367 C-47.18467373804096 -19.064678429048527, -46.903120615609495 -19.14824191788369, -46.23715417819017 -19.345897260780582 M-46.23715417819017 -19.345897260780582 C-45.74320010630214 -19.458639054337468, -45.249246034414114 -19.57138084789435, -44.98723507402745 -19.631183139821303 M-46.23715417819017 -19.345897260780582 C-45.86433931668987 -19.43098982007369, -45.49152445518958 -19.5160823793668, -44.98723507402745 -19.631183139821303 M-44.98723507402745 -19.631183139821303 C-44.518136279112646 -19.707023395067644, -44.04903748419783 -19.782863650313985, -43.72160573369013 -19.835800276464923 M-44.98723507402745 -19.631183139821303 C-44.55930167012706 -19.70036809389081, -44.13136826622668 -19.76955304796031, -43.72160573369013 -19.835800276464923 M-43.72160573369013 -19.835800276464923 C-43.360846311453464 -19.87060230405141, -43.0000868892168 -19.905404331637897, -42.44546689961426 -19.95890785500673 M-43.72160573369013 -19.835800276464923 C-43.237465729236675 -19.882504680431005, -42.753325724783224 -19.929209084397087, -42.44546689961426 -19.95890785500673 M-42.44546689961426 -19.95890785500673 C-42.082007177670306 -19.97056330085804, -41.71854745572636 -19.98221874670935, -41.16406250000001 -20 M-42.44546689961426 -19.95890785500673 C-42.09935422765049 -19.97000701472916, -41.753241555686714 -19.98110617445159, -41.16406250000001 -20 M-41.16406250000001 -20 C-41.16406250000001 -20, -41.16406250000001 -20, -41.1640625 -20 M-41.16406250000001 -20 C-41.16406250000001 -20, -41.16406250000001 -20, -41.1640625 -20" stroke="#7fb0cc" stroke-width="1.6" fill="none" stroke-dasharray="0 0" style="fill:#131b25 !important;stroke:#7fb0cc !important;stroke-width:1.6px !important"/></g><g class="label" style="color:#dbe6ef !important" transform="translate(-48.1640625, -12)"><rect/><foreignObject width="96.328125" height="24"><div style="color: rgb(219, 230, 239) !important; display: table-cell; white-space: nowrap; line-height: 1.5; max-width: 200px; text-align: center;" xmlns="http://www.w3.org/1999/xhtml"><span style="color:#dbe6ef !important" class="nodeLabel "><p>Navigateur</p></span></div></foreignObject></g></g><g class="node default ember " id="my-svg-flowchart-NLB-1" data-look="classic" transform="translate(485.8359375, 158)"><polygon points="10,0 209.03125,0 219.03125,-20 209.03125,-40 10,-40 0,-20" class="label-container" transform="translate(-109.515625,20)" style="fill:#131b25 !important;stroke:#7fb0cc !important;stroke-width:1.6px !important"/><g class="label" style="color:#dbe6ef !important" transform="translate(-91.515625, -12)"><rect/><foreignObject width="183.03125" height="24"><div style="color: rgb(219, 230, 239) !important; display: table-cell; white-space: nowrap; line-height: 1.5; max-width: 200px; text-align: center;" xmlns="http://www.w3.org/1999/xhtml"><span style="color:#dbe6ef !important" class="nodeLabel "><p>NLB · ingress-nginx</p></span></div></foreignObject></g></g><g class="node default svc " id="my-svg-flowchart-WEB-2" data-look="classic" transform="translate(738.6015625, 332)"><rect class="basic label-container" style="fill:#131b25 !important;stroke:#7fb0cc !important;stroke-width:1.6px !important" x="-80.15625" y="-40" width="160.3125" height="80"/><g class="label" style="color:#dbe6ef !important" transform="translate(-48.15625, -24)"><rect/><foreignObject width="96.3125" height="48"><div style="color: rgb(219, 230, 239) !important; display: table-cell; white-space: nowrap; line-height: 1.5; max-width: 200px; text-align: center;" xmlns="http://www.w3.org/1999/xhtml"><span style="color:#dbe6ef !important" class="nodeLabel "><p>web<br /><small>React / Vite</small></p></span></div></foreignObject></g></g><g class="node default svc " id="my-svg-flowchart-GW-3" data-look="classic" transform="translate(471.609375, 332)"><rect class="basic label-container" style="fill:#131b25 !important;stroke:#7fb0cc !important;stroke-width:1.6px !important" x="-84.984375" y="-40" width="169.96875" height="80"/><g class="label" style="color:#dbe6ef !important" transform="translate(-52.984375, -24)"><rect/><foreignObject width="105.96875" height="48"><div style="color: rgb(219, 230, 239) !important; display: table-cell; white-space: nowrap; line-height: 1.5; max-width: 200px; text-align: center;" xmlns="http://www.w3.org/1999/xhtml"><span style="color:#dbe6ef !important" class="nodeLabel "><p>gateway-api<br /><small>Fastify REST</small></p></span></div></foreignObject></g></g><g class="node default svc " id="my-svg-flowchart-RT-4" data-look="classic" transform="translate(157.40625, 332)"><rect class="basic label-container" style="fill:#131b25 !important;stroke:#7fb0cc !important;stroke-width:1.6px !important" x="-70.53125" y="-40" width="141.0625" height="80"/><g class="label" style="color:#dbe6ef !important" transform="translate(-38.53125, -24)"><rect/><foreignObject width="77.0625" height="48"><div style="color: rgb(219, 230, 239) !important; display: table-cell; white-space: nowrap; line-height: 1.5; max-width: 200px; text-align: center;" xmlns="http://www.w3.org/1999/xhtml"><span style="color:#dbe6ef !important" class="nodeLabel "><p>realtime<br /><small>WebSocket</small></p></span></div></foreignObject></g></g><g class="node default svc " id="my-svg-flowchart-WK-5" data-look="classic" transform="translate(291.69921875, 685.2085952758789)"><rect class="basic label-container" style="fill:#131b25 !important;stroke:#7fb0cc !important;stroke-width:1.6px !important" x="-64.1015625" y="-40" width="128.203125" height="80"/><g class="label" style="color:#dbe6ef !important" transform="translate(-32.1015625, -24)"><rect/><foreignObject width="64.203125" height="48"><div style="color: rgb(219, 230, 239) !important; display: table-cell; white-space: nowrap; line-height: 1.5; max-width: 200px; text-align: center;" xmlns="http://www.w3.org/1999/xhtml"><span style="color:#dbe6ef !important" class="nodeLabel "><p>worker<br /><small>consumer</small></p></span></div></foreignObject></g></g><g class="node default data " id="my-svg-flowchart-REDIS-6" data-look="classic" transform="translate(499.13671875, 508.60429763793945)"><path d="M0,13.736201847262898 a76.21875,13.736201847262898 0,0,0 152.4375,0 a76.21875,13.736201847262898 0,0,0 -152.4375,0 l0,77.73620184726289 a76.21875,13.736201847262898 0,0,0 152.4375,0 l0,-77.73620184726289" class="basic label-container outer-path" style="fill:#11171f !important;stroke:#5f7686 !important;stroke-width:1.4px !important" label-offset-y="13.736201847262898" transform="translate(-76.21875, -52.60430277089434)"/><g class="label" style="color:#c4ceda !important" transform="translate(-68.21875, -13.333333333333334)"><rect/><foreignObject width="136.4375" height="48"><div style="color: rgb(196, 206, 218) !important; display: table-cell; white-space: nowrap; line-height: 1.5; max-width: 200px; text-align: center;" xmlns="http://www.w3.org/1999/xhtml"><span style="color:#c4ceda !important" class="nodeLabel "><p>Redis<br /><small>StatefulSet · PVC</small></p></span></div></foreignObject></g></g><g class="node default data " id="my-svg-flowchart-MQ-7" data-look="classic" transform="translate(291.69921875, 508.60429763793945)"><path d="M0,13.736201847262898 a76.21875,13.736201847262898 0,0,0 152.4375,0 a76.21875,13.736201847262898 0,0,0 -152.4375,0 l0,77.73620184726289 a76.21875,13.736201847262898 0,0,0 152.4375,0 l0,-77.73620184726289" class="basic label-container outer-path" style="fill:#11171f !important;stroke:#5f7686 !important;stroke-width:1.4px !important" label-offset-y="13.736201847262898" transform="translate(-76.21875, -52.60430277089434)"/><g class="label" style="color:#c4ceda !important" transform="translate(-68.21875, -13.333333333333334)"><rect/><foreignObject width="136.4375" height="48"><div style="color: rgb(196, 206, 218) !important; display: table-cell; white-space: nowrap; line-height: 1.5; max-width: 200px; text-align: center;" xmlns="http://www.w3.org/1999/xhtml"><span style="color:#c4ceda !important" class="nodeLabel "><p>RabbitMQ<br /><small>StatefulSet · PVC</small></p></span></div></foreignObject></g></g><g class="node default data " id="my-svg-flowchart-RDS-8" data-look="classic" transform="translate(324.33203125, 891.7162475585938)"><path d="M0,13.67176437269895 a75.4296875,13.67176437269895 0,0,0 150.859375,0 a75.4296875,13.67176437269895 0,0,0 -150.859375,0 l0,77.67176437269895 a75.4296875,13.67176437269895 0,0,0 150.859375,0 l0,-77.67176437269895" class="basic label-container outer-path" style="fill:#11171f !important;stroke:#5f7686 !important;stroke-width:1.4px !important" label-offset-y="13.67176437269895" transform="translate(-75.4296875, -52.507646559048425)"/><g class="label" style="color:#c4ceda !important" transform="translate(-67.4296875, -13.333333333333334)"><rect/><foreignObject width="134.859375" height="48"><div style="color: rgb(196, 206, 218) !important; display: table-cell; white-space: nowrap; line-height: 1.5; max-width: 200px; text-align: center;" xmlns="http://www.w3.org/1999/xhtml"><span style="color:#c4ceda !important" class="nodeLabel "><p>RDS PostgreSQL<br /><small>subnets privés</small></p></span></div></foreignObject></g></g><g class="node default ext " id="my-svg-flowchart-SM-9" data-look="classic" transform="translate(744.5546875, 158)"><polygon points="0,0 160.5,0 160.5,-40 0,-40 0,0 -8,0 168.5,0 168.5,-40 -8,-40 -8,0" class="label-container" transform="translate(-80.25,20)" style="fill:#0f141b !important;stroke:#4c5a68 !important;stroke-width:1.2px !important"/><g class="label" style="color:#9aa7b4 !important" transform="translate(-72.25, -12)"><rect/><foreignObject width="144.5" height="24"><div style="color: rgb(154, 167, 180) !important; display: table-cell; white-space: nowrap; line-height: 1.5; max-width: 200px; text-align: center;" xmlns="http://www.w3.org/1999/xhtml"><span style="color:#9aa7b4 !important" class="nodeLabel "><p>Secrets Manager</p></span></div></foreignObject></g></g></g></g></g><defs><filter id="my-svg-drop-shadow" height="130%" width="130%"><feDropShadow dx="4" dy="4" stdDeviation="0" flood-opacity="0.06" flood-color="#000000"/></filter></defs><defs><filter id="my-svg-drop-shadow-small" height="150%" width="150%"><feDropShadow dx="2" dy="2" stdDeviation="0" flood-opacity="0.06" flood-color="#000000"/></filter></defs><linearGradient id="my-svg-gradient" gradientUnits="objectBoundingBox" x1="0%" y1="0%" x2="100%" y2="0%"><stop offset="0%" stop-color="hsl(40.5882352941, 60%, 83.3333333333%)" stop-opacity="1"/><stop offset="100%" stop-color="hsl(-79.4117647059, 60%, 83.3333333333%)" stop-opacity="1"/></linearGradient></svg>